<?xml version="1.0" encoding="utf-8"?>
<!-- Generator: Adobe Illustrator 16.0.0, SVG Export Plug-In . SVG Version: 6.00 Build 0)  -->
<!DOCTYPE svg PUBLIC "-//W3C//DTD SVG 1.1//EN" "http://www.w3.org/Graphics/SVG/1.1/DTD/svg11.dtd">
<svg version="1.1" id="Layer_1" xmlns="http://www.w3.org/2000/svg" xmlns:xlink="http://www.w3.org/1999/xlink" x="0px" y="0px"
	 width="300px" height="100px" viewBox="0 0 300 100" enable-background="new 0 0 300 100" xml:space="preserve">
<g>
	<path fill="#29ABE2" d="M62.825,32.64h17.716v5.375H69.404v6.622H79.81v5.332H69.404v11.652h-6.579V32.64z"/>
	<path fill="#29ABE2" d="M95.548,61.621l-0.387-2.107h-0.129c-1.376,1.678-3.526,2.58-6.02,2.58c-4.257,0-6.794-3.096-6.794-6.449
		c0-5.461,4.902-8.084,12.341-8.041v-0.301c0-1.118-0.602-2.709-3.827-2.709c-2.15,0-4.429,0.73-5.805,1.591l-1.204-4.214
		c1.462-0.817,4.343-1.85,8.17-1.85c7.009,0,9.245,4.128,9.245,9.073v7.31c0,2.021,0.086,3.956,0.301,5.117H95.548z M94.774,51.688
		c-3.44-0.043-6.106,0.773-6.106,3.311c0,1.677,1.118,2.494,2.58,2.494c1.634,0,2.967-1.075,3.397-2.408
		c0.086-0.344,0.129-0.73,0.129-1.118V51.688z"/>
	<path fill="#29ABE2" d="M106.299,47.518c0-3.096-0.086-5.117-0.172-6.923h5.633l0.215,3.87h0.172
		c1.075-3.054,3.655-4.344,5.676-4.344c0.602,0,0.903,0,1.376,0.086v6.149c-0.473-0.086-1.032-0.172-1.763-0.172
		c-2.408,0-4.042,1.29-4.472,3.311c-0.086,0.431-0.129,0.946-0.129,1.462v10.664h-6.536V47.518z"/>
	<path fill="#29ABE2" d="M122.638,47.303c0-2.623-0.086-4.859-0.172-6.708h5.504l0.301,2.838h0.129
		c0.903-1.333,2.752-3.312,6.364-3.312c2.709,0,4.859,1.376,5.762,3.569h0.086c0.774-1.075,1.72-1.935,2.709-2.537
		c1.161-0.688,2.451-1.032,3.999-1.032c4.042,0,7.094,2.838,7.094,9.116v12.384h-6.363V50.184c0-3.054-0.989-4.816-3.096-4.816
		c-1.505,0-2.58,1.032-3.01,2.279c-0.172,0.473-0.258,1.161-0.258,1.677v12.298h-6.364V49.839c0-2.665-0.946-4.472-3.01-4.472
		c-1.677,0-2.666,1.29-3.053,2.365c-0.215,0.516-0.258,1.118-0.258,1.634v12.255h-6.364V47.303z"/>
	<path fill="#29ABE2" d="M171.571,61.621l-0.388-2.107h-0.129c-1.376,1.678-3.525,2.58-6.02,2.58c-4.257,0-6.794-3.096-6.794-6.449
		c0-5.461,4.901-8.084,12.341-8.041v-0.301c0-1.118-0.603-2.709-3.827-2.709c-2.149,0-4.429,0.73-5.805,1.591l-1.204-4.214
		c1.462-0.817,4.343-1.85,8.17-1.85c7.009,0,9.245,4.128,9.245,9.073v7.31c0,2.021,0.086,3.956,0.301,5.117H171.571z
		 M170.797,51.688c-3.439-0.043-6.105,0.773-6.105,3.311c0,1.677,1.117,2.494,2.579,2.494c1.635,0,2.968-1.075,3.397-2.408
		c0.086-0.344,0.129-0.73,0.129-1.118V51.688z"/>
	<path fill="#29ABE2" d="M182.149,61.621c0.086-1.376,0.172-3.913,0.172-6.278V31.092h6.536v11.997h0.086
		c1.247-1.807,3.439-2.968,6.363-2.968c5.031,0,8.729,4.171,8.687,10.621c0,7.568-4.816,11.352-9.632,11.352
		c-2.451,0-4.816-0.902-6.321-3.396h-0.086l-0.258,2.924H182.149z M188.857,52.678c0,0.43,0.043,0.816,0.129,1.16
		c0.43,1.764,1.935,3.097,3.827,3.097c2.795,0,4.515-2.15,4.515-5.935c0-3.268-1.462-5.848-4.515-5.848
		c-1.764,0-3.397,1.333-3.827,3.225c-0.086,0.388-0.129,0.774-0.129,1.204V52.678z"/>
	<path fill="#29ABE2" d="M228.933,50.871c0,7.697-5.461,11.223-11.094,11.223c-6.149,0-10.879-4.042-10.879-10.836
		c0-6.793,4.472-11.137,11.223-11.137C224.633,40.121,228.933,44.551,228.933,50.871z M213.711,51.086
		c0,3.612,1.505,6.321,4.3,6.321c2.537,0,4.171-2.537,4.171-6.321c0-3.139-1.204-6.32-4.171-6.32
		C214.872,44.766,213.711,47.99,213.711,51.086z"/>
	<path fill="#29ABE2" d="M253.872,50.871c0,7.697-5.461,11.223-11.094,11.223c-6.149,0-10.879-4.042-10.879-10.836
		c0-6.793,4.472-11.137,11.223-11.137C249.572,40.121,253.872,44.551,253.872,50.871z M238.65,51.086c0,3.612,1.505,6.321,4.3,6.321
		c2.537,0,4.171-2.537,4.171-6.321c0-3.139-1.204-6.32-4.171-6.32C239.812,44.766,238.65,47.99,238.65,51.086z"/>
	<path fill="#29ABE2" d="M264.45,49.452h0.086c0.473-0.859,0.988-1.72,1.505-2.537l4.257-6.32h7.869l-7.525,8.514l8.6,12.513h-8.04
		l-5.074-8.643l-1.677,2.063v6.579h-6.536V31.092h6.536V49.452z"/>
</g>
<rect x="21" y="25" fill="#00FFFF" width="32" height="50"/>
<circle fill="#FFFFFF" cx="30.633" cy="36.709" r="6.646"/>
<path fill="#00FFFF" d="M21,25"/>
<line fill="#00FFFF" x1="53" y1="25" x2="53" y2="25"/>
</svg>
